# xmcd
#
# Track frame offsets:
#	150
#	16951
#	43181
#	75804
#	91240
#	107634
#	132682
#	150162
#	166472
#	180357
#	199186
#	214501
#
# Disc length: 3276 seconds
#
# Revision: 1
# Processed by: cddbd v1.5.2PL0 Copyright (c) Steve Scherf et al.
# Submitted via: EZCDAudioConverter 6.0.0.1
#
DISCID=8b0cca0c
DTITLE=Breadfoot
DYEAR=2001
DGENRE=Blues
TTITLE0=Puddlehopper
TTITLE1=Coney Island Dog
TTITLE2=Edgartown
TTITLE3=Groundhog
TTITLE4=Stuart's in the Turnips
TTITLE5=Low Country Woman
TTITLE6=More Pork
TTITLE7=Hair of the Yak
TTITLE8=Sunshine (Kisses in the Morning)
TTITLE9=S. 4th and Bedford
TTITLE10=(I Was) Happy When I Woke
TTITLE11=A Hard Day in Manhattan (w Anna Phoebe)
EXTD=
EXTT0=
EXTT1=
EXTT2=
EXTT3=
EXTT4=
EXTT5=
EXTT6=
EXTT7=
EXTT8=
EXTT9=
EXTT10=
EXTT11=
PLAYORDER=
